<svg id="Layer_1" data-name="Layer 1" xmlns="http://www.w3.org/2000/svg" viewBox="0 0 193.45 218.78"><defs><style>.cls-1{stroke:#231f20;stroke-miterlimit:10;}</style></defs><title>Personal Logo-01</title><path class="cls-1" d="M36.22,179.58c-7-4.18-13.87-7.76-20.17-12.18-8.51-6-12.61-14.69-12.67-25-.14-23.89-.18-47.79,0-71.68.09-11.75,5.33-21,15.5-27Q50,25.42,81.42,7.61c10.07-5.7,20.59-5.73,30.66,0q31.49,17.84,62.67,36.17c10.17,6,15.34,15.28,15.43,27q.25,35.76,0,71.52c-.08,11.68-5.19,21-15.3,26.93-23.64,13.88-51.82,32.22-75.56,45.92a7.2,7.2,0,0,1-.76.36l-.16.08v-4.24c0-6.93,0-20.72,0-28.74v-5.19c0-2.41,5.3-5,7.4-6.2,15.71-9,31.37-18.12,47.09-27.14a8.2,8.2,0,0,0,4.51-7.77q-.08-29.8,0-59.61A8.14,8.14,0,0,0,153,69q-25.87-14.87-51.68-29.84a8.23,8.23,0,0,0-9,0Q66.48,54.18,40.6,69a8.14,8.14,0,0,0-4.41,7.68q.06,50.28,0,100.55Z"/><path class="cls-1" d="M89.76,210.79l-11-6.35c-9.18-5.3-18.33-10.63-27.54-15.88A5.75,5.75,0,0,1,48,183.07c0-31.21,2.51-92.21,2.92-92,.81.46.22-1.57,1-1.11q17.41,10,34.82,20.08a5.56,5.56,0,0,1,3,5.27q0,46.91,0,93.8Z"/><path class="cls-1" d="M144,85.45a15.05,15.05,0,0,0-7.27-9.3q-15.85-9.32-31.85-18.38a15.09,15.09,0,0,0-10.27-1.94l0-.07-.16.09a16.51,16.51,0,0,0-5.19,1.93q-16,9-31.79,18.34a15.25,15.25,0,0,0-7.88,13.72q-.06,9-.06,18-.18,9-.3,18a15.25,15.25,0,0,0,7.56,13.89q15.67,9.65,31.48,19a14.93,14.93,0,0,0,11.84,1.81,16.15,16.15,0,0,0,2.72-1l1-.51Q120,150.32,136,141.34a15.06,15.06,0,0,0,7.55-9.37,17.3,17.3,0,0,0,1-5.73q.06-8.7.06-17.41c.12-5.82.21-11.64.3-17.47A16.77,16.77,0,0,0,144,85.45Z"/></svg>