<svg id="Layer_1" data-name="Layer 1" xmlns="http://www.w3.org/2000/svg" viewBox="0 0 193.45 218.78"><title>Personal Logo</title><path d="M34.54,181.48c-7.18-4.29-14.26-8-20.73-12.52-8.75-6.14-13-15.09-13-25.72Q.56,106.42.8,69.57C.89,57.5,6.28,48,16.72,41.84Q48.73,23,81,4.74c10.35-5.86,21.15-5.89,31.51,0q32.36,18.33,64.41,37.17C187.36,48,192.68,57.6,192.77,69.67q.27,36.75,0,73.51c-.09,12-5.34,21.58-15.73,27.68-24.29,14.26-53.26,33.11-77.66,47.19a8.33,8.33,0,0,1-.78.38l-.16.07v-4.35c0-7.13,0-21.3,0-29.54,0-.52,0-4.87,0-5.34,0-2.47,5.45-5.13,7.61-6.36,16.15-9.27,32.24-18.64,48.39-27.9a8.43,8.43,0,0,0,4.64-8q-.08-30.63,0-61.26a8.36,8.36,0,0,0-4.54-7.89Q127.93,52.58,101.4,37.19a8.46,8.46,0,0,0-9.24,0Q65.63,52.59,39,67.87a8.38,8.38,0,0,0-4.53,7.9q.06,51.68,0,103.34Z"/><path d="M89.56,213.56,78.21,207c-9.43-5.45-18.84-10.92-28.29-16.31a5.94,5.94,0,0,1-3.27-5.65c0-32.08,2.57-94.77,3-94.53.83.48.22-1.61,1.05-1.13Q68.6,99.73,86.48,110.05a5.71,5.71,0,0,1,3.1,5.41q0,48.2,0,96.4Z"/><path d="M145.31,84.74a15.48,15.48,0,0,0-7.47-9.56q-16.29-9.57-32.74-18.89a15.55,15.55,0,0,0-10.55-2s0-.07,0-.06l-.17.09a17,17,0,0,0-5.33,2Q72.68,65.6,56.42,75.15a15.64,15.64,0,0,0-8.09,14.1q-.07,9.25-.07,18.52Q48.08,117,48,126.24a15.67,15.67,0,0,0,7.78,14.28q16.09,9.9,32.35,19.55a15.38,15.38,0,0,0,12.16,1.86,16.42,16.42,0,0,0,2.8-1c.35-.16.7-.33,1-.52q16.59-9,33-18.2a15.51,15.51,0,0,0,7.76-9.63,17.7,17.7,0,0,0,1-5.89q.06-8.94.06-17.89.18-9,.3-18A17.24,17.24,0,0,0,145.31,84.74Z"/></svg>